<mxfile modified="2022-05-09T01:13:14.254Z" host="app.diagrams.net" agent="5.0 (Windows NT 10.0; Win64; x64) AppleWebKit/537.36 (KHTML, like Gecko) Chrome/101.0.4951.54 Safari/537.36 Edg/101.0.1210.39" etag="9uvix9Ec6tT2B0GPTN3F" compressed="false" version="18.0.2" type="google">
  <diagram id="3-z4Z5wsivisjI5b2qrX" name="Intended Audience">
    <mxGraphModel grid="1" page="1" gridSize="10" guides="1" tooltips="1" connect="1" arrows="1" fold="1" pageScale="1" pageWidth="827" pageHeight="1169" math="0" shadow="0">
      <root>
        <mxCell id="S9mM11XIe4ebcKMvdF33-0" />
        <mxCell id="S9mM11XIe4ebcKMvdF33-1" value="About" parent="S9mM11XIe4ebcKMvdF33-0" />
        <mxCell id="S9mM11XIe4ebcKMvdF33-4" value="Title" parent="S9mM11XIe4ebcKMvdF33-0" />
      </root>
    </mxGraphModel>
  </diagram>
</mxfile>
